Coordinates
version=1
nRows=26
nColumns=24
inDegrees=yes

Units are S.I. units (second, meters, Newtons, ...)
Angles are in degrees.

endheader
time	pelvis_tilt	pelvis_list	pelvis_rotation	pelvis_tx	pelvis_ty	pelvis_tz	hip_flexion_r	hip_adduction_r	hip_rotation_r	knee_angle_r	ankle_angle_r	subtalar_angle_r	mtp_angle_r	hip_flexion_l	hip_adduction_l	hip_rotation_l	knee_angle_l	ankle_angle_l	subtalar_angle_l	mtp_angle_l	lumbar_extension	lumbar_bending	lumbar_rotation
      4.23500000	    -16.72237735	      5.07413423	     -2.57469771	     -0.96547471	     -0.01087218	     -0.32965303	     34.69032437	     -6.04738865	     -2.27069909	    -60.68536781	     -3.90966862	    -14.62172917	     17.17696070	     22.70062753	      6.82381756	     -9.67216267	    -18.67633226	      4.87160889	     -0.83152650	      7.73679374	     23.39417641	     -5.24671401	    -10.50103732
      4.24000000	    -16.73897973	      4.75394224	     -2.27012563	     -0.95920904	     -0.01006233	     -0.33008575	     35.22486997	     -5.85990324	     -2.91918032	    -59.83957199	     -3.47745844	    -14.77794865	     16.70407003	     21.99441450	      6.68512580	     -9.37639212	    -18.20173245	      4.93238018	     -0.63006915	      7.64173103	     23.31551255	     -5.08376888	    -10.97919753
      4.24500000	    -16.76204983	      4.44984938	     -1.97017218	     -0.95295600	     -0.00933639	     -0.33047066	     35.75106481	     -5.69283451	     -3.56852556	    -58.93053104	     -3.07914571	    -14.89265821	     16.25016386	     21.29875776	      6.54956502	     -9.09229573	    -17.72577302	      4.99330666	     -0.43309999	      7.54126477	     23.24532352	     -4.93664460	    -11.44101356
      4.25000000	    -16.78302988	      4.15801640	     -1.66683248	     -0.94672830	     -0.00867739	     -0.33084246	     36.25635511	     -5.54828708	     -4.22519600	    -57.95557571	     -2.71472015	    -14.96717359	     15.80545515	     20.60482026	      6.41904654	     -8.81587407	    -17.24729987	      5.04696124	     -0.23557980	      7.43581222	     23.17242141	     -4.80524254	    -11.90001334
      4.25500000	    -16.76793171	      3.90453558	     -1.36247423	     -0.94050853	     -0.00805213	     -0.33118593	     36.71462672	     -5.45305058	     -4.88458820	    -56.93832783	     -2.40665241	    -15.00219098	     15.23391687	     19.85931046	      6.32320300	     -8.52485112	    -16.73767237	      5.08643754	     -0.02624109	      7.29560095	     23.06146840	     -4.71461204	    -12.35862656
      4.26000000	    -16.86147138	      3.64256982	     -1.12399537	     -0.93430578	     -0.00764831	     -0.33145954	     37.27450710	     -5.29861168	     -5.45072473	    -55.84149810	     -2.04779353	    -14.89950117	     15.00982558	     19.24785355	      6.17875824	     -8.31580778	    -16.25435281	      5.17965674	      0.18024328	      7.25045163	     23.07429153	     -4.57096222	    -12.69472693
      4.26500000	    -16.85693803	      3.37837759	     -0.77400857	     -0.92814366	     -0.00714953	     -0.33178654	     37.67614378	     -5.23330358	     -6.17828036	    -54.66286580	     -1.75292657	    -14.85341837	     14.67523616	     18.55062489	      6.05737457	     -8.08305200	    -15.79422106	      5.19357083	      0.40548190	      7.17703841	     22.96573308	     -4.49722630	    -13.20327070
      4.27000000	    -16.86510565	      3.14564022	     -0.48525141	     -0.92198465	     -0.00676451	     -0.33205042	     38.09581025	     -5.16363323	     -6.83037132	    -53.45030265	     -1.47602957	    -14.68569440	     14.38015637	     17.84221242	      5.94299350	     -7.84029179	    -15.28468031	      5.23820136	      0.65603074	      7.12650192	     22.87591390	     -4.41717682	    -13.61608940
      4.27500000	    -16.94929280	      2.92019999	     -0.25346364	     -0.91583015	     -0.00655881	     -0.33222723	     38.58180995	     -5.05542282	     -7.40465033	    -52.17172354	     -1.16399875	    -14.40887163	     14.25828734	     17.22977764	      5.80606215	     -7.69331120	    -14.79711231	      5.31189671	      0.87911064	      7.11295128	     22.87631224	     -4.31890293	    -13.95562669
      4.28000000	    -16.99140549	      2.69396094	      0.04542479	     -0.90970017	     -0.00634166	     -0.33247910	     38.97976624	     -5.00061468	     -8.05364381	    -50.81975520	     -0.88414439	    -14.10260193	     14.16534655	     16.58293381	      5.68016708	     -7.51259083	    -14.32124196	      5.35868259	      1.15596784	      7.11923547	     22.82207941	     -4.24323711	    -14.36686717
      4.28500000	    -16.97535486	      2.48226851	      0.35536483	     -0.90360653	     -0.00609544	     -0.33268872	     39.28883310	     -4.97133240	     -8.72841576	    -49.40433986	     -0.65658815	    -13.76733589	     14.09652026	     15.87884880	      5.56048199	     -7.32791195	    -13.84587498	      5.36011666	      1.44440035	      7.13756760	     22.69857210	     -4.19934536	    -14.79159796
      4.29000000	    -17.02104682	      2.27732860	      0.61174851	     -0.89748780	     -0.00602455	     -0.33283755	     39.64438451	     -4.90412788	     -9.32535756	    -47.93119306	     -0.38028336	    -13.32706845	     14.10977129	     15.24492690	      5.42648168	     -7.20063970	    -13.37986368	      5.40980094	      1.70210135	      7.17028758	     22.65092515	     -4.13397450	    -15.14674292
      4.29500000	    -17.07659473	      2.08351336	      0.86297990	     -0.89139937	     -0.00600860	     -0.33295192	     39.98759459	     -4.84006870	     -9.90490835	    -46.39903580	     -0.14873595	    -12.83755331	     14.17220461	     14.63250889	      5.29389459	     -7.08127441	    -12.92721666	      5.43769837	      1.96977148	      7.20651112	     22.61010011	     -4.07873619	    -15.46365519
      4.30000000	    -17.14914283	      1.89855469	      1.08492806	     -0.88529920	     -0.00608030	     -0.33303451	     40.32747150	     -4.76736093	    -10.46565407	    -44.81499589	      0.05890388	    -12.28764132	     14.26650335	     14.04202900	      5.15884078	     -6.97509579	    -12.48349965	      5.47700050	      2.22950599	      7.24167225	     22.59484196	     -4.01224182	    -15.73909961
      4.30500000	    -17.10221258	      1.70564023	      1.39485241	     -0.87920936	     -0.00608130	     -0.33322067	     40.49120962	     -4.76195288	    -11.16165303	    -43.17351304	      0.24362473	    -11.75255730	     14.47230787	     13.32916171	      5.02994808	     -6.83394378	    -12.04053712	      5.52903715	      2.54815108	      7.31795210	     22.43655036	     -3.97854220	    -16.17641627
      4.31000000	    -17.12528768	      1.52512242	      1.62465483	     -0.87310600	     -0.00621622	     -0.33328874	     40.70887944	     -4.69246768	    -11.73634596	    -41.46556833	      0.41791643	    -11.15954480	     14.70731741	     12.70684023	      4.88836668	     -6.75424720	    -11.62932074	      5.57077450	      2.80673365	      7.37802366	     22.36375311	     -3.92081691	    -16.47146506
      4.31500000	    -17.15444856	      1.35275306	      1.85306330	     -0.86699837	     -0.00641973	     -0.33334886	     40.90413682	     -4.62444941	    -12.30628283	    -39.70867348	      0.56833207	    -10.55553123	     14.96203853	     12.10601083	      4.75036084	     -6.69306380	    -11.24388972	      5.61875149	      3.06689154	      7.43607641	     22.29686848	     -3.86735328	    -16.75449881
      4.32000000	    -17.19097278	      1.18968360	      2.07073816	     -0.86088487	     -0.00669484	     -0.33337335	     41.07919692	     -4.55157330	    -12.87011301	    -37.90640903	      0.70812024	     -9.93109640	     15.20480406	     11.53441617	      4.61337229	     -6.65631837	    -10.89860874	      5.67402605	      3.32325507	      7.48875586	     22.24075569	     -3.82216540	    -17.02283076
      4.32500000	    -17.22170905	      1.02933330	      2.27975288	     -0.85475250	     -0.00702061	     -0.33338144	     41.21784726	     -4.46680302	    -13.42369774	    -36.06033390	      0.82014515	     -9.30902232	     15.44337360	     10.97047381	      4.47291481	     -6.63428686	    -10.57937385	      5.73664431	      3.57529842	      7.53957835	     22.17781541	     -3.77171527	    -17.26947762
      4.33000000	    -17.25248803	      0.87693288	      2.47913353	     -0.84860504	     -0.00740842	     -0.33336662	     41.32968736	     -4.37372814	    -13.96427643	    -34.17763597	      0.91702591	     -8.68891659	     15.66650725	     10.42724106	      4.33398148	     -6.62804439	    -10.30048225	      5.80783691	      3.82015780	      7.58977952	     22.11719233	     -3.72522561	    -17.50008712
      4.33500000	    -17.29117719	      0.73204713	      2.66698590	     -0.84244288	     -0.00786813	     -0.33331719	     41.42903497	     -4.27311401	    -14.50209141	    -32.27339790	      0.99461746	     -8.06550098	     15.85451393	      9.91312322	      4.19536383	     -6.63551296	    -10.06143513	      5.88867737	      4.05284436	      7.63523436	     22.06770639	     -3.68105632	    -17.70772548
      4.34000000	    -17.31768793	      0.58940854	      2.85579259	     -0.83625861	     -0.00837614	     -0.33324159	     41.48912510	     -4.16196803	    -15.02639100	    -30.34714023	      1.06653739	     -7.44924432	     16.02657966	      9.40763782	      4.05241420	     -6.64225117	     -9.86449312	      5.98256934	      4.28085403	      7.67859671	     22.00487051	     -3.63918840	    -17.92095586
      4.34500000	    -17.33108824	      0.44805787	      3.04670392	     -0.83004549	     -0.00893303	     -0.33317175	     41.51481267	     -4.04734729	    -15.55525838	    -28.41438494	      1.12575436	     -6.83383457	     16.18853101	      8.90944962	      3.90630214	     -6.64571638	     -9.71134505	      6.09359562	      4.50457737	      7.71779973	     21.93262069	     -3.59643077	    -18.13301344
      4.35000000	    -17.33550093	      0.31311393	      3.23039563	     -0.82380669	     -0.00953751	     -0.33304126	     41.51673215	     -3.92302901	    -16.08382576	    -26.48810699	      1.17249466	     -6.22440566	     16.34516696	      8.42365718	      3.75546362	     -6.64096265	     -9.60336590	      6.21112484	      4.72133158	      7.74623746	     21.85044012	     -3.56174705	    -18.33964029
      4.35500000	    -17.35656483	      0.17594975	      3.39980227	     -0.81754044	     -0.01021922	     -0.33287821	     41.53115492	     -3.78228077	    -16.60141504	    -24.58847656	      1.18924328	     -5.60622609	     16.48108606	      7.97492182	      3.59496913	     -6.63165558	     -9.53420787	      6.34397549	      4.91307733	      7.76039380	     21.79134460	     -3.51829765	    -18.50970444
      4.36000000	    -17.36507019	      0.03878694	      3.57052002	     -0.81123902	     -0.01094328	     -0.33269443	     41.52442847	     -3.63554314	    -17.12083864	    -22.72367361	      1.20069600	     -4.98203934	     16.62158307	      7.53440990	      3.42605075	     -6.60626147	     -9.51052370	      6.49327690	      5.10736643	      7.76551754	     21.72103049	     -3.47283418	    -18.68667289
